<svg width="123" height="102" viewBox="0 0 123 102" fill="none" xmlns="http://www.w3.org/2000/svg">
<path d="M120 102V96.0864C120 94.4298 118.938 92.9415 117.332 92.3541C98.4968 85.4406 77.5871 76.854 75.8297 71.5047V65.8914C79.7371 62.0931 82.8188 56.7999 84.643 50.5992C89.0251 47.6754 90.1146 41.6496 86.4873 37.4124V24.8493C86.4873 11.877 78.8844 3 61.5021 3C44.5683 3 36.5077 11.877 36.5077 24.8493V37.4157C32.8885 41.6496 33.9756 47.6688 38.3521 50.5959C40.1759 56.7999 43.2601 62.0931 47.1696 65.8914V71.5047C45.4175 76.8474 24.5028 85.434 5.6676 92.3541C4.06222 92.9448 3 94.4298 3 96.0864V102" stroke="black" stroke-width="6"/>
</svg>