<svg width="123" height="102" fill="none" xmlns="http://www.w3.org/2000/svg"><path d="M120 102v-5.914c0-1.656-1.062-3.144-2.668-3.732-18.835-6.913-39.745-15.5-41.502-20.85v-5.613c3.907-3.798 6.989-9.091 8.813-15.292 4.382-2.924 5.472-8.95 1.844-13.187V24.85C86.487 11.877 78.884 3 61.502 3c-16.934 0-24.994 8.877-24.994 21.85v12.566c-3.62 4.234-2.532 10.253 1.844 13.18C40.176 56.8 43.26 62.093 47.17 65.89v5.614c-1.753 5.342-22.667 13.929-41.502 20.85C4.062 92.944 3 94.43 3 96.085V102" stroke="#000" stroke-width="6"/></svg>